<svg width="166" height="86" viewBox="0 0 166 86" fill="none" xmlns="http://www.w3.org/2000/svg">
<path d="M79.9962 4.51377L89.5507 2.396L98.0973 2.54727L101.919 1.23123L110.721 0.898438L130.026 1.33712L144.516 4.16585L139.536 5.54239L129.921 5.69367L116.319 6.04158L117.342 6.67691L126.37 6.28361L133.547 7.52402L138.753 6.41976L140.499 7.70554L137.158 9.77793L143.959 8.44676L156.538 7.07021L163.971 7.76605L165.175 9.27874L154.327 11.8201L152.717 12.6369L144.336 13.2571L150.294 13.4235L146.743 16.0253L144.17 18.3398L143.493 22.3181L146.307 24.6477L142.064 24.7989L137.384 25.9335L142.064 27.8243L142.199 30.8497L139.19 31.1825L142.274 34.2532L136.045 34.5104L139.039 35.9626L137.911 37.2332L133.848 37.7778L129.936 37.7929L133.036 40.2132L132.81 41.8016L127.453 40.3191L125.813 41.2721L129.5 42.1797L132.87 44.358L133.502 47.2321L128.251 47.928L126.265 46.5514L123.075 44.4941L123.616 46.9144L119.93 48.8053L127.528 48.9566L131.501 49.1381L123.195 52.2543L114.754 55.0679L105.906 56.3083L102.656 56.3234L99.3311 57.6999L94.4108 61.4817L87.4593 63.9776L85.3528 64.1289L81.1698 65.0062L76.6708 65.8382L73.5712 68.0467L72.9543 70.5578L70.8779 72.9025L65.2504 75.7614L65.8523 78.5599L63.806 81.5248L61.4587 85.004L57.035 85.2309L53.1229 82.3114L46.9387 82.2811L44.441 80.3298L43.2974 76.8355L39.2348 72.3881L38.3772 70.0586L38.9188 66.8517L35.8042 63.554L37.7302 60.922L36.1653 59.6513L40.4988 55.4763L45.3739 54.1451L47.044 52.6475L48.6089 49.8642L44.8472 51.1197L43.0717 51.6643L40.273 52.1635L37.1283 50.9987L37.8355 48.5784L39.7013 46.6724L42.3796 46.627L47.9167 47.5649L43.809 45.2959L41.7175 44.0706L38.6781 44.5849L36.6468 43.6924L41.1909 40.3645L40.0323 39.0333L38.8587 36.5677L37.2487 32.7708L34.3898 31.3943L35.1722 29.8967L28.8978 27.8092L23.2553 27.5369L15.8674 27.6882L9.05126 27.9453L6.58363 26.8108L3.30348 24.572L11.1127 23.4375L16.6498 23.256L5.75608 22.3333L0.730469 20.8659L2.09972 19.4894L13.3396 17.7649L24.143 16.0556L26.054 14.7547L19.9601 13.4689L23.2703 12.047L33.9835 9.56615L37.9709 9.17285L38.1063 7.5694L44.772 6.63153L52.8972 6.07184L60.6161 6.04158L62.6323 7.16098L70.5469 5.19448L75.6928 6.52564L79.0632 6.81305L83.6525 7.9627L78.7473 6.04158L79.9962 4.51377Z" fill="#333333"/>
</svg>
