<svg width="43" height="53" viewBox="0 0 43 53" fill="none" xmlns="http://www.w3.org/2000/svg">
<path d="M18.0127 41.6719L18.8252 42.8971L17.5312 45.0603L15.7858 43.9106L14.2661 44.7426L13.9651 46.8301L11.4373 45.8166L10.9709 44.1224L12.2347 41.9895L14.3112 42.3979L15.2591 40.9004L18.0127 41.6719ZM36.1589 31.0074L35.858 33.8512L37.0617 35.6362L36.1288 38.1473L32.307 39.8264L26.3485 40.0533L22.7223 44.1224L19.9989 42.7459L19.0358 40.0835L13.3182 40.8701L9.76717 42.5492L5.76472 42.6097L10.0229 45.2418L9.42104 51.2926L7.58539 52.7901L5.55404 51.4136L5.52401 48.1915L3.05635 47.1629L0.964844 44.7124L3.88389 43.6232L5.02745 41.3844L7.91638 39.539L9.6769 37.0884L16.1319 36.0295L20.0289 36.7556L21.4734 30.4174L24.3323 32.1268L28.0789 28.5568L29.5083 27.1651L30.0199 22.8086L27.8983 18.8L28.4249 16.5461L31.7503 15.8805L35.557 20.827L36.5652 23.7313L34.7746 27.3164L36.1589 31.0074ZM35.9784 5.89671L38.6717 6.6682L40.3418 5.15551L42.8847 9.16413L38.3558 10.1323L36.9263 13.6871L30.6368 11.2365L30.4262 15.1544L26.7096 15.1998L24.7987 11.6601L25.2952 8.90697L28.7711 8.71032L27.5673 3.76381L27.2814 0.980469L32.8938 4.7017L35.9784 5.89671Z" fill="#4AD7CE"/>
</svg>
