<svg width="341" height="191" viewBox="0 0 341 191" fill="none" xmlns="http://www.w3.org/2000/svg">
<path d="M145.259 60.9284L144.251 59.5972L142.099 58.4476L143.017 55.3314L140.67 52.4422L141.061 49.0689L138.187 48.842L133.252 48.7512L130.243 47.7226L126.255 44.0165L123.742 43.3358L119.198 42.05L114.669 42.3677L109.764 40.7188L107.206 39.191L103.204 39.9474L102 42.4282L100.119 42.6702L95.9664 43.4114L92.3401 44.6216L88.3227 45.3779L89.4361 43.2753L93.4837 39.7658L97.6215 38.6616L97.471 37.7691L91.979 39.7507L88.0518 42.1408L81.642 44.6821L82.635 46.4217L77.8051 48.9781L73.3362 50.4757L69.409 51.5648L67.4981 53.1531L61.2538 54.9986L59.072 56.6777L54.2872 58.2055L52.286 57.9332L48.6146 58.9316L44.5369 60.1418L41.0461 61.3368L34.862 62.3654L34.7717 61.7603L39.4361 60.0813L43.3332 58.9921L48.103 57.0256L52.3311 56.6323L54.9492 55.165L60.8626 53.017L62.0813 52.306L65.3314 51.0505L67.8743 48.3277L71.0491 46.225L66.6104 47.299L66.0687 46.694L63.3904 47.9949L62.7283 46.1796L60.9077 47.4654L61.1033 45.6805L56.8601 47.1024H54.9492L56.3335 44.9846L57.9285 43.6686L56.9504 42.3979L52.3462 43.0786L51.0973 41.3996L49.6829 40.5373L51.3681 38.5254L50.2998 36.9976L53.279 34.9404L57.5372 32.9436L60.2607 31.1133L62.9691 30.841L64.549 31.4158L68.5514 29.6913L70.4774 30.009L73.7876 28.8896L74.7055 27.2559L73.592 26.6206L77.0979 25.244L75.217 25.2743L71.2899 26.0609L69.6348 26.8475L67.9796 26.0609L63.3302 26.4542L59.719 25.6071L59.8394 24.17L58.0789 22.0825L63.7665 20.5849L72.1776 18.8453H74.6302L72.4485 20.6303L78.9035 20.4942L78.6627 18.2705L76.3756 16.9091L76.1048 15.1241L74.871 13.5963L72.0422 12.4769L75.7286 10.6012L81.0401 10.4802L86.502 8.8616L89.1201 7.10687L93.9802 5.41267L97.2604 5.00424L104.513 3.41592L106.89 3.65794L113.451 1.75195L116.956 2.5083L117.257 4.11176L119.304 3.43104L123.923 3.64281L122.87 4.45967L126.646 5.06475L129.972 4.71683L134.892 5.83622L140.128 6.18413L141.889 6.63794L146.327 6.06313L149.668 7.13714L152.346 7.63633L140.384 20.9026L124.66 41.2634L127.64 41.3693L129.972 42.3525L131.085 43.9257L132.289 46.2704L136.652 44.2737L140.55 43.1089L140.971 44.9695L142.129 46.4217L143.98 48.0403L144.341 50.5967L145.109 54.681L149.186 56.95L147.998 59.2039L145.259 60.9284ZM338.548 88.5803L337.329 87.5517L334.967 88.1568L334.094 87.2189L330.935 89.9115L329.28 92.6948L327.73 94.3134L326.195 94.8731L325.097 95.0395L324.555 95.932H318.431L313.375 95.9623L311.72 96.6127L307.718 99.0935L307.928 99.6078L307.808 100.984L305.024 102.164L302.361 101.877L299.758 101.741L298.073 102.149L298.118 103.223L298.103 103.571L294.717 105.704L291.934 106.733L290.098 107.217L287.871 108.2L285.328 108.684L283.688 108.502L281.792 107.761L283.282 106.385L284.32 105.129L286.382 103.163L286.592 101.71L286.517 99.6381L285.373 99.275L282.891 100.848L282.244 100.818L282.304 99.9255L284.501 98.4884L285.238 96.8699L285.404 95.2362L283.327 93.8445L280.694 93.1335L279.851 94.4949L279.024 94.858L277.955 96.6127L277.97 95.4177L276.406 96.2799L275.247 97.4749L273.908 99.2297L273.336 100.742L273.863 102.951L273.171 105.311L271.365 107.05L270.553 107.534L269.559 107.928L268.401 107.943L268.16 107.701L267.739 105.825L267.949 104.902L268.265 104.025L268.311 102.27L269.484 100.258L270.929 97.7623L273.411 95.0244H272.915L269.83 97.3388L269.484 96.9152L271.154 95.6295L273.788 93.315L276.135 92.9974L278.918 92.2864L281.416 92.6495L281.522 92.6646L284.531 92.3469L283.282 90.925L282.424 90.8191L281.461 90.6678L281.055 89.6695L277.715 89.9871L274.555 90.7737L272.614 89.4123L270.884 88.9585L272.509 87.0828L269.243 88.2627L266.249 89.4123L263.42 90.3351L261.765 89.0946L258.229 89.851L258.395 89.3215L261.103 87.8089L263.902 86.3869L267.618 85.207L263.872 84.2843L261.058 84.7381L258.244 83.6338L255.07 83.0741L252.858 82.8472L252.045 82.2422L252.135 80.2757L251.022 80.3059L250.54 81.6673H243.754H232.545H221.41H211.585H201.759H192.099H182.108H178.888H169.168H159.854L159.704 84.602L158.982 87.5366L157.778 88.4744L157.447 85.1011L153.219 83.891L152.512 84.5868L152.752 86.2508L152.497 89.3064L151.127 94.0865L149.427 97.3237L147.772 100.576L145.199 103.934L145.259 106.672L144.281 109.728L142.506 112.693L143.634 114.644L143.138 117.548L144.793 120.543L145.921 121.708L145.53 122.54L146.869 127.502L149.141 131.087L149.006 133.038L149.728 133.613L152.813 133.961L153.776 134.929L155.656 135.111L155.747 136.139L157.236 136.563L158.937 138.605L159.057 140.435L163.029 140.163L167.498 139.77L167.002 140.466L171.786 142.205L179.069 144.716L185.93 144.686H188.669L189.015 143.219H194.988L195.966 144.474L197.486 145.609L199.201 147.182L199.954 149.043L200.42 150.994L202 152.068L204.663 153.142L207.402 150.328L210.246 150.253L212.412 151.675L213.691 154.125L214.504 156.213L216.189 158.24L216.52 160.736L217.197 162.4L219.74 163.504L222.087 164.29L223.457 164.185L222.99 162.974L223.11 161.265L223.562 158.799L224.645 157.211L226.842 155.502L230.559 153.959L234.185 151.327L237.254 150.495L239.451 150.238L241.828 151.07L244.928 150.616L247.185 152.507L249.683 152.612L251.097 151.947L252.301 152.461L253.038 151.992L252.421 151.296L252.722 149.844L252.271 148.906L253.791 148.347L256.484 148.105L259.478 148.498L263.466 148.044L265.482 148.922L266.881 150.585L267.468 150.767L271.23 149.148L272.494 149.693L274.72 152.673L275.382 154.639L274.314 156.999L274.63 158.391L275.849 161.129L277.278 164.185L278.482 165.001L278.828 166.575L280.498 166.998L281.597 166.559L282.755 164.381L283.086 162.99L283.523 160.584L282.469 156.455L282.68 154.912L281.522 152.386L280.844 149.345L280.634 146.864L281.582 144.338L283.568 142.22L285.795 140.526L289.978 138.212L290.67 137.017L292.641 135.701L294.401 135.474L297.02 133.386L300.751 132.327L303.399 129.68L303.58 126.11L303.46 124.87L302.527 124.628L303.038 121.239L300.932 120.09L303.068 120.649L302.797 118.38L303.76 116.837L303.55 119.802L305.024 121.164L303.505 123.599L303.791 123.735L306.243 120.891L307.612 119.5L307.823 118.153L307.101 117.518L306.8 115.597L307.718 116.489L308.425 116.671L308.5 117.594L311.509 114.841L312.758 112.284L311.795 112.118L313.029 111.135L312.849 111.558H314.985L319.921 110.484L319.063 109.818L313.977 110.484L317.001 109.455L319.003 109.274L320.492 109.092L323.11 108.472L324.72 108.548L327.098 107.958L327.579 106.944L326.737 106.158L326.812 107.459L325.443 107.368L324.72 105.477L325.157 103.586L325.894 102.769L328.121 100.652L331.868 99.5927L335.569 98.3674L339.481 96.643L339.165 95.4631L337.435 93.4512L338.548 88.5803ZM80.4984 49.6135L78.437 50.158L74.6603 51.4287L73.9682 53.1078L74.9462 54.0305L79.0539 52.6691L82.9661 50.9749L82.4244 49.8555L80.4984 49.6135ZM44.6724 31.6881L47.5613 30.962L48.1782 30.5687L46.0717 30.1754L44.6724 31.6881ZM45.846 40.9911L42.2649 41.5962L43.3483 42.5643L44.8379 43.2299L47.2002 42.6853L48.0278 41.3088L45.846 40.9911ZM140.023 63.3789L136.788 63.6663L135.539 63.1974L134.727 64.3319L134.456 65.9051L135.479 67.0245L135.795 68.6582L136.878 70.307H138.157L136.863 67.4329L140.023 63.3789ZM13.1798 181.823L11.9911 181.49L11.5848 181.792L11.5698 182.019L11.9158 182.307L12.3672 183.048L13.6011 182.791L13.9772 182.367L13.1798 181.823ZM9.55351 181.187L11.4193 181.278L11.5999 180.9L9.91464 180.748L9.55351 181.187ZM16.1439 185.12L15.5722 184.803L14.3534 184.213L14.0976 184.137L13.8268 184.47L13.9321 185.166L13.2098 185.755L12.9541 186.149L13.2851 187.45L12.9992 188.433L13.7816 188.947L14.3985 188.357L15.6324 187.798L17.1521 187.041L17.2724 186.845L16.6104 185.589L16.1439 185.12ZM7.56735 178.979L6.52914 179.463L6.63447 179.614L6.90531 180.416L8.09398 180.537L8.33474 180.582L8.57548 180.385L7.80811 179.206L7.56735 178.979ZM2.46654 177.133L1.84964 177.481L1.60889 177.738L2.64711 178.389L3.14365 178.026L3.26401 177.209L2.46654 177.133Z" fill="#4AD7CE" stroke="#3C3C3C" stroke-width="2"/>
</svg>
