<svg width="197" height="129" viewBox="0 0 197 129" fill="none" xmlns="http://www.w3.org/2000/svg">
<path d="M141.082 125.794L138.253 127.503L135.229 126.399L134.717 123.343L136.237 121.725L139.953 120.727L141.985 120.817L142.963 122.179L141.623 123.737L141.082 125.794ZM169.159 14.9592L175.388 16.0937L180.459 18.635L183.333 21.9932H188.328L190.525 20.5864L195.46 19.5275L195.25 22.7495L194.573 24.0505L195.205 27.9683L194.482 31.4475L190.179 30.8122L187.862 32.0677L189.998 35.1234L191.217 39.3438L189.547 39.4497L190.269 41.2497L187.29 39.1471L186.733 41.1439L182.144 42.6868L183.363 44.5625L180.414 44.4415L178.397 43.3222L177.013 45.8483L173.974 47.7695L172.018 50.0536L167.654 51.0974L165.713 52.7613L162.373 53.7446L163.637 52.0806L162.478 50.6889L164.344 48.2989L161.921 46.4231L159.409 47.6787L156.429 50.1746L155.09 52.4739L151.825 52.6403L150.621 54.3043L153.149 56.7246L156.113 57.2994L156.715 58.9028L159.725 59.9466L162.749 57.4053L166.21 58.797L168.437 58.8877L169.565 60.7483L165.036 61.7467L164.013 63.6829L161.214 65.4679L160.161 67.9639L164.389 69.9153L166.691 73.4247L169.64 76.6921L172.68 79.4301L173.297 82.0773L171.371 83.0605L172.65 84.9514L174.952 86.0708L175.102 88.96L174.861 91.7887L172.981 92.1064L171.28 95.9638L169.415 100.638L166.992 104.889L162.779 108.186L158.415 111.181L154.533 111.59L152.653 113.163L151.253 112.013L149.553 113.783L144.934 115.568L141.292 116.113L140.645 119.879L138.734 120.076L137.44 117.504L138.057 116.128L133.182 114.978L131.617 115.568L127.946 114.63L126.05 113.193L126.291 111.136L122.996 110.486L121.085 109.154L118.391 111.045L115.051 111.454L112.252 111.439L110.507 112.316L108.762 112.83L109.86 116.899L107.979 116.809L107.543 115.977L107.242 114.494L104.804 115.538L103.194 114.888L100.396 113.541L100.998 110.591L98.6803 109.896L97.3562 106.613L93.7601 107.203L93.5344 102.983L96.3481 100.003L96.002 97.068L95.4303 94.3452L93.7601 93.4981L92.2253 91.3954L90.2392 91.6677L86.4023 91.1232L87.305 89.6256L85.2738 87.4171L83.0769 88.9146L80.0074 88.0373L76.4113 90.3063L73.7029 92.9535L70.9795 93.4073L69.2942 92.4543L67.4434 92.3636L64.8253 91.5316L63.095 92.4392L61.2293 95.0864L60.4919 92.2879L58.4908 93.0292L54.383 92.6812L50.3204 91.8644L47.2659 90.3063L44.4522 89.5953L43.0228 87.886L40.9915 87.3717L37.1245 85.0573L34.1603 83.953L32.8663 84.8152L27.6602 82.3193L23.9135 80.0654L22.2885 76.1324L24.8464 76.6165L24.6358 74.7861L22.9506 72.9709L22.785 70.0514L18.3463 65.8763L12.448 64.4393L10.9433 61.7013L8.11453 60.0374L7.30205 59.0087L6.41426 56.9817L6.26383 55.5901L4.03695 54.7732L2.99873 55.1363L1.479 51.8386L2.29149 51.0217L1.64449 50.1746L4.53343 48.4955L6.71521 47.7997L10.3866 48.2686L11.169 45.9996L15.3972 45.576L16.2699 44.1541L21.1149 42.2179L21.4007 41.4161L20.6484 39.374L22.7098 38.4513L18.1507 32.2492L24.365 30.8273L25.8546 30.0256L26.4715 23.642L33.3628 24.8068L34.717 23.2034L33.7992 19.6183L36.4323 19.2855L38.1778 16.8954L39.3664 16.608L41.0215 19.104L44.3619 20.9948L49.4778 22.3411L52.6527 25.2152L52.6376 29.3903L54.2776 30.9332L58.4155 31.5383L63.0348 32.0375L67.7144 34.2611L69.8961 34.6696L72.3939 37.9521L74.9668 40.0699L78.6382 39.9942L85.7853 40.796L90.0887 40.2968L93.5645 40.8262L99.1769 42.9894H103.239L105.075 44.1087L108.385 42.1876L113.411 40.9472L118.391 40.8111L121.897 39.5555L123.658 37.6496L125.584 36.4394L124.636 35.2595L123.086 33.8981L124.019 31.5837L126.005 31.9165L129.691 32.6426L132.31 30.7366L136.839 29.36L138.358 27.0002L140.299 25.9867L144.904 25.5026L147.672 25.9111L147.522 24.6404L143.504 22.1445L140.405 20.9948L138.403 22.326L134.943 21.7663L133.258 22.2201L131.813 20.7528L132.671 17.1828L133.107 14.4903L137.606 15.8366L141.232 13.5827L140.495 12.0095L141.684 8.22772L142.948 7.07808L141.97 5.09646L139.788 4.24935L141.578 2.4795L145.265 1.82904L149.478 1.73828L154.819 2.79716L158.325 4.1132L162.117 7.7134L164.088 9.25635L166.285 11.4498L169.159 14.9592Z" fill="#DADADA" stroke="#333333" stroke-width="2"/>
</svg>
